<?xml version="1.0" encoding="utf-8"?>
<!DOCTYPE svg PUBLIC "-//W3C//DTD SVG 1.1 Tiny//EN" "http://www.w3.org/Graphics/SVG/1.1/DTD/svg11-tiny.dtd">
<svg version="1.1" baseProfile="tiny" id="icons" xmlns="http://www.w3.org/2000/svg" xmlns:xlink="http://www.w3.org/1999/xlink"
	 x="0px" y="0px" width="13px" height="15px" viewBox="0 0 13 15" xml:space="preserve">
<path fill="#626366" d="M6.5,14.88c3.48,0,6.3-2.83,6.3-6.31c0-3.19-2.34-5.84-5.48-6.25v-2.2L7.02,0.3L3.28,3.16L2.97,3.34
	l0.31,0.18l3.74,2.86l0.31,0.18V4.5c1.92,0.39,3.33,2.1,3.33,4.07c0,2.29-1.87,4.16-4.16,4.16s-4.16-1.87-4.16-4.16
	c0-0.68,0.17-1.36,0.5-1.96l0.1-0.18l-0.17-0.1l-1.5-0.86l-0.18-0.1l-0.1,0.18C0.46,6.47,0.2,7.52,0.2,8.57
	C0.2,12.05,3.02,14.88,6.5,14.88z"/>
</svg>
