<?xml version="1.0" encoding="utf-8"?>
<!-- Generator: Adobe Illustrator 18.1.0, SVG Export Plug-In . SVG Version: 6.00 Build 0)  -->
<svg version="1.1" id="icons" xmlns="http://www.w3.org/2000/svg" xmlns:xlink="http://www.w3.org/1999/xlink" x="0px" y="0px"
	 viewBox="-343.7 387.4 692 692" enable-background="new -343.7 387.4 692 692" xml:space="preserve">
<path fill="#999999" d="M7,1079.4c164.8,0,296.6-131.8,296.6-296.6c0-150.6-108.3-273-258.9-291.9V387.3l-14.1,9.4l-174.2,136.5
	l-14.1,9.4l14.1,9.4L30.5,688.6l14.1,9.4v-98.9C134.1,618,200,698,200,792.2c0,108.3-89.4,197.7-197.7,197.7
	s-197.7-89.4-197.7-197.7c0-33,9.4-65.9,23.5-94.2l4.7-9.4l-9.4-4.7l-70.6-42.4l-9.4-4.7l-4.7,9.4c-23.5,42.4-37.7,94.2-37.7,141.2
	C-289.6,942.8-157.8,1079.4,7,1079.4z"/>
</svg>
