<?xml version="1.0" encoding="utf-8"?>
<!-- Generator: Adobe Illustrator 18.1.0, SVG Export Plug-In . SVG Version: 6.00 Build 0)  -->
<svg version="1.1" id="icons" xmlns="http://www.w3.org/2000/svg" xmlns:xlink="http://www.w3.org/1999/xlink" x="0px" y="0px"
	 viewBox="-299 389 13 15" enable-background="new -299 389 13 15" xml:space="preserve">
<path fill="#626366" d="M-292.5,403.9c3.5,0,6.3-2.8,6.3-6.3c0-3.2-2.3-5.8-5.5-6.2v-2.2l-0.3,0.2l-3.7,2.9l-0.3,0.2l0.3,0.2
	l3.7,2.9l0.3,0.2v-2.1c1.9,0.4,3.3,2.1,3.3,4.1c0,2.3-1.9,4.2-4.2,4.2s-4.2-1.9-4.2-4.2c0-0.7,0.2-1.4,0.5-2l0.1-0.2l-0.2-0.1
	l-1.5-0.9l-0.2-0.1l-0.1,0.2c-0.5,0.9-0.8,2-0.8,3C-298.8,401-296,403.9-292.5,403.9z"/>
</svg>
